<mxfile host="app.diagrams.net" modified="2023-02-08T09:31:06.411Z" agent="5.0 (Windows NT 10.0; Win64; x64) AppleWebKit/537.36 (KHTML, like Gecko) Chrome/97.0.4692.71 Safari/537.36" etag="fZpY-HxJIhrQukD0wkf-" version="20.8.18" type="github">
  <diagram id="cmyu2CPnNLxLO0Smeh7c" name="第 1 页">
    <mxGraphModel dx="560" dy="339" grid="0" gridSize="10" guides="1" tooltips="1" connect="1" arrows="1" fold="1" page="1" pageScale="1" pageWidth="827" pageHeight="1169" background="none" math="0" shadow="0">
      <root>
        <mxCell id="0" />
        <mxCell id="1" parent="0" />
        <mxCell id="oUBLhN4DjLoy9qspo_FG-40" value="" style="rounded=0;whiteSpace=wrap;html=1;strokeWidth=2;dashed=1;strokeColor=#A9C4EB;" parent="1" vertex="1">
          <mxGeometry x="68" y="158.75" width="617" height="287" as="geometry" />
        </mxCell>
        <mxCell id="oUBLhN4DjLoy9qspo_FG-2" value="" style="verticalAlign=top;verticalLabelPosition=bottom;labelPosition=center;align=center;html=1;outlineConnect=0;fillColor=#1ba1e2;strokeColor=#006EAF;gradientDirection=north;strokeWidth=2;shape=mxgraph.networks.server;dashed=1;dashPattern=1 4;fontColor=#ffffff;" parent="1" vertex="1">
          <mxGeometry x="252" y="197" width="36" height="43" as="geometry" />
        </mxCell>
        <mxCell id="oUBLhN4DjLoy9qspo_FG-4" value="" style="verticalAlign=top;verticalLabelPosition=bottom;labelPosition=center;align=center;html=1;outlineConnect=0;fillColor=#1ba1e2;strokeColor=#006EAF;gradientDirection=north;strokeWidth=2;shape=mxgraph.networks.server;dashed=1;dashPattern=1 4;fontColor=#ffffff;" parent="1" vertex="1">
          <mxGeometry x="445" y="197" width="36" height="43" as="geometry" />
        </mxCell>
        <mxCell id="oUBLhN4DjLoy9qspo_FG-15" value="" style="endArrow=open;startArrow=open;html=1;rounded=0;fillColor=#f5f5f5;gradientColor=#b3b3b3;strokeColor=#666666;dashed=1;dashPattern=1 2;startFill=0;endFill=0;" parent="1" source="oUBLhN4DjLoy9qspo_FG-2" target="oUBLhN4DjLoy9qspo_FG-4" edge="1">
          <mxGeometry width="50" height="50" relative="1" as="geometry">
            <mxPoint x="379" y="279" as="sourcePoint" />
            <mxPoint x="429" y="229" as="targetPoint" />
          </mxGeometry>
        </mxCell>
        <mxCell id="tnFina3MZYSvZwjHpAd1-11" value="sync" style="edgeLabel;html=1;align=center;verticalAlign=middle;resizable=0;points=[];fontColor=#66B2FF;" parent="oUBLhN4DjLoy9qspo_FG-15" vertex="1" connectable="0">
          <mxGeometry x="0.2339" y="3" relative="1" as="geometry">
            <mxPoint x="-16" y="3" as="offset" />
          </mxGeometry>
        </mxCell>
        <mxCell id="tnFina3MZYSvZwjHpAd1-3" value="&lt;font style=&quot;font-size: 11px;&quot;&gt;class1&lt;/font&gt;" style="verticalAlign=top;verticalLabelPosition=bottom;labelPosition=center;align=center;html=1;outlineConnect=0;fillColor=#d5e8d4;strokeColor=#82b366;gradientDirection=north;strokeWidth=2;shape=mxgraph.networks.pc;" parent="1" vertex="1">
          <mxGeometry x="151" y="323.5" width="38" height="29" as="geometry" />
        </mxCell>
        <mxCell id="tnFina3MZYSvZwjHpAd1-7" value="" style="endArrow=none;startArrow=classic;html=1;rounded=0;strokeColor=#666666;fillColor=#f5f5f5;gradientColor=#b3b3b3;endFill=0;entryX=0.5;entryY=0.07;entryDx=0;entryDy=0;entryPerimeter=0;" parent="1" target="tnFina3MZYSvZwjHpAd1-3" edge="1">
          <mxGeometry width="50" height="50" relative="1" as="geometry">
            <mxPoint x="259" y="243" as="sourcePoint" />
            <mxPoint x="177" y="324" as="targetPoint" />
          </mxGeometry>
        </mxCell>
        <mxCell id="tnFina3MZYSvZwjHpAd1-12" value="" style="endArrow=none;startArrow=classic;html=1;rounded=0;strokeColor=#666666;fillColor=#f5f5f5;gradientColor=#b3b3b3;endFill=0;entryX=0.5;entryY=0.07;entryDx=0;entryDy=0;entryPerimeter=0;" parent="1" target="tnFina3MZYSvZwjHpAd1-23" edge="1">
          <mxGeometry width="50" height="50" relative="1" as="geometry">
            <mxPoint x="270" y="243" as="sourcePoint" />
            <mxPoint x="270" y="317" as="targetPoint" />
          </mxGeometry>
        </mxCell>
        <mxCell id="tnFina3MZYSvZwjHpAd1-13" value="" style="endArrow=none;startArrow=classic;html=1;rounded=0;strokeColor=#666666;fillColor=#f5f5f5;gradientColor=#b3b3b3;endFill=0;entryX=0.5;entryY=0.07;entryDx=0;entryDy=0;entryPerimeter=0;" parent="1" target="tnFina3MZYSvZwjHpAd1-24" edge="1">
          <mxGeometry width="50" height="50" relative="1" as="geometry">
            <mxPoint x="281" y="243" as="sourcePoint" />
            <mxPoint x="362" y="322.52" as="targetPoint" />
          </mxGeometry>
        </mxCell>
        <mxCell id="tnFina3MZYSvZwjHpAd1-14" value="" style="endArrow=none;startArrow=classic;html=1;rounded=0;strokeColor=#666666;fillColor=#f5f5f5;gradientColor=#b3b3b3;endFill=0;entryX=0.5;entryY=0.07;entryDx=0;entryDy=0;entryPerimeter=0;" parent="1" target="tnFina3MZYSvZwjHpAd1-24" edge="1">
          <mxGeometry width="50" height="50" relative="1" as="geometry">
            <mxPoint x="449" y="242" as="sourcePoint" />
            <mxPoint x="370" y="325" as="targetPoint" />
          </mxGeometry>
        </mxCell>
        <mxCell id="tnFina3MZYSvZwjHpAd1-16" value="" style="endArrow=none;startArrow=classic;html=1;rounded=0;strokeColor=#666666;fillColor=#f5f5f5;gradientColor=#b3b3b3;endFill=0;entryX=0.5;entryY=0.07;entryDx=0;entryDy=0;entryPerimeter=0;" parent="1" source="oUBLhN4DjLoy9qspo_FG-4" target="tnFina3MZYSvZwjHpAd1-25" edge="1">
          <mxGeometry width="50" height="50" relative="1" as="geometry">
            <mxPoint x="471" y="237" as="sourcePoint" />
            <mxPoint x="459" y="322.52" as="targetPoint" />
          </mxGeometry>
        </mxCell>
        <mxCell id="tnFina3MZYSvZwjHpAd1-17" value="" style="endArrow=none;startArrow=classic;html=1;rounded=0;strokeColor=#666666;fillColor=#f5f5f5;gradientColor=#b3b3b3;endFill=0;entryX=0.5;entryY=0.07;entryDx=0;entryDy=0;entryPerimeter=0;" parent="1" target="tnFina3MZYSvZwjHpAd1-26" edge="1">
          <mxGeometry width="50" height="50" relative="1" as="geometry">
            <mxPoint x="471" y="241" as="sourcePoint" />
            <mxPoint x="538.5979381443299" y="320" as="targetPoint" />
          </mxGeometry>
        </mxCell>
        <mxCell id="tnFina3MZYSvZwjHpAd1-19" value="local bucket" style="shape=image;imageAspect=0;aspect=fixed;verticalLabelPosition=bottom;verticalAlign=top;fontColor=#66B2FF;image=data:image/png,iVBORw0KGgoAAAANSUhEUgAAALwAAACdCAIAAACB24VvAAAAAXNSR0IArs4c6QAAAARnQU1BAACxjwv8YQUAAAAJcEhZcwAAHYcAAB2HAY/l8WUAABnFSURBVHhe7Z0JXE3p/8dvRdqzVFKiRQ2GmUSYCJOiESNj95fsjH0djfws2YckyxRly5pBmRQh2mTNFimKQpGijUqK/yfnmV6mZLq3s+a8X8+r132+59ync+/zOd/lnk3yQURESkTRiEiNKBoRqRFFIyI1omhEpEYUjYjUiKIRkZqvVDQlJSX5+fkvX7588eJFampqbGxsaGjooUOHfHx8tm7d6unp6eHh4e7uvn79+nX/gNewbNiwYePGjZs3b/by8tqzZ09AQEBkZOS9e/fS09MzMzOzs7MLCgrI/6i91HLRvH//PiMj4+7du+Hh4du3b1+wYMG4ceMGDRpkZWVlZGTUoEEDNTU1DQ2N+vXrN2zYUFtbW1dXV09Pr2nTps2aNTM0NDQ2NjY1NTUzMzMxMcH6zZs3NzAw0NfXx2paWlqampqqqqrKysr16tVTUVFRV1fHCK1bt+7du7eTk9O0adNWr1597NgxKDIpKen169dkm4RPrRJNaWkpnMfFixfhA+bNm2dvb29ubo7phzIwwZj49u3b29rajhgxYv78+XAY/v7+cDDR0dGY1/j4+EePHj1//hwj5OTkwA/BZ7x9+xY+CcMWFxcXFhZi4vPy8uBO4FSePn364MGD27dvX758GYoMCgratWvXqlWrpk6d6ujo2KVLl1atWuno6NStW1deXh4b0KJFi65du44cORL/Nzg4ODk5uaioiGy30BC8aDDHV65cwUyMHTvWwsIC+3qjRo3gCTBDzs7OS5cu3bdvX0xMzJMnTzDZmHvyNuZ58+YNYh8i18mTJxHyZs+e3b9/f/ghCEgikcA/wW/16dPH1dUVMS4lJYXNbashghQNdvRz584tW7YMgQDxAvEFQQQTsGjRosOHD9+4cSM3N5esyjPevXsHFxUREeHt7T1p0qTOnTsjRFIaghecMGHC/v37oTOsRt7ASwQjGoSJhIQE5CUDBgxAzgGhIPSMGTNm586diBGIJmQ9oQENYQdYuXKlg4MD0ikICBlShw4d/ve//50/f56f6heAaJBtIKPs1KkT8hIkoUOGDPH19UVqKdycoCqQS6EWW7x4MTyQkpISBITdY/z48SEhIVhEVuIB/BUNwvyff/7Zo0cPlDbffPPN3LlzsUdmZWWRxbUauFUEKWTWSINQlEE9yKPnzJmDHB9ZOVmJO3gnGnwpyFsRd5DPYj9DmD99+jRqFrL46wN11rZt22xsbFCIQT3dunXz8/N79eoVWcwFPBINSlzUwN27d0e+gpIVXw0qI7Lsq+f9+/dxcXHz5s1DYQjpGBsbI4qlpqaSxezCC9GgWEDZiUCOSOTk5BQdHc3z8oFDnj17hsrLwsIC0tHR0XFzc0tLSyPL2IJ70YSHh1tbWyNyjxo16ubNm8Qq8kXglfft29euXTtIx8DAwN3dnc3DF1yKBjvN9OnTEYxQEF27do1YRapNfn6+j48PcmRIBzseSnSygGE4E82xY8dMTU1NTEyOHj2KgE2sItKTnp4+bdo0eXl5ZMouLi4s/GTFgWiKi4tXrFihoqIyderUFy9eEKtIzQgNDaWilb29fVJSErEyA9uiycnJGTx4MBLeXbt2EZMITSDcOzo6Qjdw4VFRUcTKAKyKBorBfoCQdOnSJWISoZXCwsKlS5dCN6jMIyIiiJVu2BNNXl5e//79jY2NExMTiUmEGdasWQPd6OnpXb58mZhohT3RoFDS0tK6ceMG6YswBgoLZMTQTcuWLRGziJU+WBJNcHCwoqJiQEAA6YswTFFRkYODA3Qzfvx4YqIPNkSDVKZNmzbOzs5iac0md+7cgWuvV6/eyZMniYkm2BCNt7d348aN2f+1W4RKbmxtbUtKSoiJDhgXDTa3Y8eOM2fOJH0RFnn69CnKKDib2NhYYqIDxkWTlJTUoEGDsLAw0hdhEeQDAwcOhLPx9PQkJjpgXDRBQUEQe3p6OumLsMvatWshmtGjR5M+HTAump07dxoYGNS+UzOFgp+fH0Rjb29P+nTAhmiUlZWTk5NJX4RdFixYANHY2dmRPh0wLppTp05ho/fu3Uv6IixSUFBAna41duxYYqIDxkWTkpICT0PvRotUk+vXr+PLh2i2bNlCTHTAuGhKS0t//PFHY2Nj3l7AVotZvXo1FKOqqhoXF0dMdMC4aACVi507d470RVjh3bt33bp1wzffr18/en+LZ0M0WVlZhoaGAwYMEA8jsEl0dLSSklKdOnVOnz5NTDTBhmjA7NmzIXkxHWaN/Px8a2trfOdwNrRf2sGSaIKDgyF5HR0d5s4MEinn7du3kyZNgmLA+vXriZU+WBJNenq6vr4+PoOBgQG9x0FEKvPbb79RilFRUUEBRaz0wZJokM3Y2dmVX9RO+8F6EYqcnJzp06fjS1ZQUMDfjh07wuuQZfTBkmgAyj98EnV1dVtbWw0NjQ0bNpAFIjTx6NEjGxsbaMXS0vKHH37AC1dXV7KMVtgTTUxMjPLH29P5+vru3r0b6hk6dOjDhw/JYpEaUFpaevDgQRMTEwhl5MiR9+/fNzMzwy4aGRlJ1qAV9kSDfL5Vq1aKiorQCrrh4eEdOnTQ1dXdtm2beDizJiQmJg4bNgxy0dTURNqLWiksLAzdli1bMnR3SPZEg7Rm3LhxkL+xsTF1O4i8vDw3N7cGDRrAqdL+W8LXQEZGxqpVq7S1tSGR/v37l18JP2fOHFgmT55MdWmHPdGAAwcOoPBGOgw3Q0wfPuCjOjo6qqqq9unTh7WrkYUO9joPDw8jIyOIo02bNnv27Cm/2VFhYeF3330H+99//01ZaIdV0SCDQTyCaNauXUtMH8EHhowcHByQIP/000/4tGzeA0FYJCcnr1y5Et4asmjRosWWLVsq3MXnypUryAFQoj5//pyY6IZV0ZSUlFhbW8PZoPyufKozpHP27Nlffvmlfv36rVu3Rnjm6qY9PAT+A1ntqFGj4JIhFwsLi82bN3/2pk+QFFYYPnw46TMAq6IBLi4uEA38zePHj4mpEvHx8QsWLDAwMGjUqBEiF+oCJq74EgTIaq9fv758+XJzc3NIAS4EO1VISEhVpUNxcXHXrl2x5r59+4iJAdgWzZkzZxCeUHj7+/sTUxVkZmYePnx44MCBSPT09PScnJzQffLkCVlcq4FfuXr16rp166ysrOTl5SECS0vL1atX3717l6xRBVhBTU0NrjolJYWYGIBt0WRlZcGFwNlU/8q/tLS0HTt2INeBeqhSCyXDtWvXsrOzyRq1AsTrp0+fBgQETJo0yczMDEJBpdm2bduFCxdeunSpmj/sImbhjfiuSJ8Z2BYNGDJkSN26dZG1vHnzhpiqR3p6emBgIL5TvFddXR1pIHJn5NRIohG/hHjeBTwKfAM86IwZMzp16oQ6AFOOoIxZx/TfunVLqgPUSApRgWKETZs2ERMzcCAab29veBp4UZlvOAK1oVD38vJCzGrVqpWmpmaTJk06duw4ceJEfNdhYWFwTpgPsjZvwKTm5uYiYzt69OjSpUuRrpmamiJNoYTSu3fvRYsWhYaGynwpKmI3xlFWVr5z5w4xMQMHosG+hRIAulmzZg0x1QCI4/79+wcOHECKbWtra2RkpKWlhV22TZs22O0mT57s4eFx4sSJuLg4OH/MGTsOCYkqcrKkpKSYmBjkpEuWLBkxYkSXLl309fXxwaESbCRy29GjR8MroCyi5b7A+/fvx8idO3dm+tkcHIimoKAArhjpMJJc2qcQToh68AmySBSokBFiGRJDODZ4IxMTE0wVjM7OzsgV4Jb27t2LNALp+cWLFyGshw8fYn9FsMOUYyLz8vKwtVDA69evc3JyUOJmZGQgSqampiYmJqKuiYqKwv9CfEHWhUA5a9aswYMHI3tt2bIlknfEUKSx8CU6OjpwhCh85syZg6mFkvAvyn+Oowv4XYgG7or0GYMD0YCZM2dih8Nu94XCmy4w3/Axt2/fPnbsmLu7u6ur65QpU/r27fv9998jJcd0Uk/7gbAQ5gBeAGTcMMIfYIXGjRtT68BIrQY1wFkiEAC8gGPDUl1dXYgS7mTkyJHz5s1Dnezr6xsREZGcnPzixQt6L8GvDP4FVWFcuHCBmBiDG9Fg/uBpwKlTp4iJdTCLcCFwJPAomFeUuEiGjh8/fuTIEX9//4MHDyLkIbIAeCOAF3ASMB46dAiuBR8BPgaeBv4JWUh+fj4CJWocrvLxoKAgOTk5BOXaeXdPgBDQtGnTevXqzZ07l5hEasa0adMQm1CFkT6TcCMa7OV2dnYovC0tLZk4texrA94FqRs8DTunRHIjGoC0EUkisgHkrcQkIivIrJHNIKf57NEo2uFMNKhWVFRU4Gy8vLyISURWFi9ejNiE6on0GYYz0aA2pk7kGzRoEDGJyERxcXGnTp0gGiTpxMQwnIkGVcaECRMUFBSMjIzYcaq1lTt37qDy19bWZuH3CwrORANQuyISo/AWb65WEzZt2gQ38/PPP7NW7XMpmtTU1CZNmqDwXrFiBTGJSAnq0N69e0M027ZtIybm4VI0+MDdu3eHs+nZsyfTP5jWVh4+fNiwYUNVVdWEhARiYh4uRQMWLlwI0TRu3Fg8s1M2du3aBTdjbW1N+5GsL8CxaJDNIKdBDYX8hphEqg2SmKFDh0I0y5cvJyZW4Fg0WVlZzZo1g7MR768mA5mZmXp6enXr1mXoaStVwbFoAPYVfOyWLVtKeyKfSGBgINyMubk5y1f8cC+a7du3w9OoqaldvHiRmESqx5QpUyCa2bNnkz5bcC+a+Ph4KAa68fDwICaRapCfn29mZiYnJ3fmzBliYgvuRVNUVNS5c2ekw46OjlydjCJEwsPD5eXlTUxMaDlVVCq4Fw349ddf4WmQEX+1F8XJgKurK2LTmDFjSJ9FeCGao0ePQjRIh0NCQohJ5IsUFhZaWlpCNEeOHCEmFuGFaKjjCRAN+zmdQLl16xYCuo6ODiePt+GFaJDK9O7dG6Jp3759VVcpi3zKH3/8ATczYMAA0mcXXogGuLu7KygoqKqqMn2hVy2gpKSkZ8+eEI2Pjw8xsQtfRHP58mUoBs5GPJHvP0lKStLQ0FBTU7t//z4xsQtfRFNQUPDtt98iTjs7OxOTSBX4+vrCzfTo0YP2W5FXE76IBqB6hKcxMzNj4codQTN48GCIZuXKlaTPOjwSDSK0oqKiiooKLdcIvnl5L+P+kdSr6xLOTrn996BrB60v7W4bs8M0yrtpxFat855qYRvqoOEFujBiEVbAalgZb8Eb8XYMQobjDWlpabofH4B75coVYmIdHonmwYMHjRo1QjpckxP5niccunX8F0jh7HoJLQ1DYUAMS/4B1/z1119wMygzObwtBo9Eg2LbysqqTp06NjY2skXruyGjyyc7eqvarX2G94+1fXLKKiPcNjumX/7VQW+uDy269X/FcaNK4se8TxiPhhfowohFWOFVTF+s/PikVeLRtng7BikfMPEcLx4tPm7cOIjGxcWF9LmAR6IBrq6uEI2Ojs6jR4+ISRqo2Y3YpPT41A8F14d9SJxYw4ZBMBQGxLBhGxTJv+GO7OxsExMTeXl5bu+dyy/RREREKCsrIx3eJ9N9BinRlLdwT8XLPlq39hslHGn9MKj9k1Nd0s50e3buR/iSzEj7l9EOaHiBLoxYhBWS/26fcORbvAVvxNsrDEj+DXecOXNGTk4OtUJeXh4xcQG/RPPy5UtDQ0M4G9kKb2pqH/tLbvpIojz/Nd+yNQyCoTAg1SX/hjvmz5+P2DRhwgTS5wh+iQYMHz4cBZS5ubkMiR6Z2nDSis9KcoMlz49JnhyWJO+XJOyRxO+W3Nkpub2jTArXt5c1vEAXRizCClgNK+MteCPeXj4UH0Tz9u1b6sawgYGBxMQRvBNNTU7kqyAaGhsfRBMbG4tKW09Pj5ODlJ/CO9Hgq9HQ0EBas3XrVmKqNrVbNGvWrIGbGTJkCOlzB+9EU1xcbGlpiXRYhutMa7Fo8LV0794dotmzZw8xcQfvRAMmTpyICGVgYCCtH67FoklISFBXV9fU1OTDY9X4KJqAgACIBhHqxIkTxFQ9mBZNzM5vorc1i/xT5/wmdXIUYpM6ujBi0WU/81j/H+NODEsMm/E41jMz+URRHm23cfDy8oKb6dWrFx9Oo+ajaB4/fkxdAzZr1ixiqh5Mi0aGFuWtFx867mVKjR6BBqE4OjpCNEw8L1kG+CgafEf29vZwNhYWFlIV3tQ8VZhvWho18pvYIYU3R7y97VRyd0xpwng0vEAXRizKvzrw1YW+z8/ZpIZ0Tvir9Q2/ppEff0qmWlK07M8gTUtL09LSQul0+/ZtYuIUPooGeHh4UCfyxcXFEVM1oKanwnzT0sjIlY4z/GfLOG8Xu1ufvF1WDh06BDfD0POSZYCnorl69aqampq0hTeZm0pTXvNGjVx9T3OvkqdBI1spPWPGjIFofv/9d9LnGp6KBlGpTZs2SkpKUt18kMxNpSmveSufeGlb1CZJ/B7ymmyllGRmZjZv3hzBOiIigpi4hqeiASi8FRUVTUxMcnNziem/oObmyWFJ4emKsy5zw1AYkBo5ZoskepMk0lNy3kMS5l7W8AJdGLHo8p+S2G2SuJ2SRL+yw1WZxyVF/2wG9XaylVISEhIiJyfXunVrbg9Sfgp/RbNjxw6kfioqKlFRUcT0XySem0lNDxom8pYvmb+MAMmrIEl+iOTNKUnRmbKDSiXnJO/PlzW8QBdGLMIK2SfKVoZK7u8tezsGKR8QQ5UrSdpGjUC2UkpmzJiB2DR16lTS5wH8FU1SUhJKBqTDbm5uxFQN6D9zb4Pk1o6yQ5gVdCBVo4YimygNr1+/RpiGp5H2JytG4a9oUCl07doVsVy20+5lOEe4bGrXlR30TvCTpMI/BZa5nwrTL1uTWTSXLl1CNaCvr5+VlUVMPIC/ogGLFy+GaLS1tdn57ZxMbaUpr3mTWTTLli1DbBo2bBjp8wNeiyYyMlJZWRm68fPzI6YvUsMrEKippcu7fNpkEw38q5WVFUSzd+9eYuIHvBbNq1evjIyMIJovn6vGzzzm00YNSza32sTHx6MOaNSokWxnTDMHr0UDRowYAWfTrl27qm4rx+wVCHsrTr9sjRqNbHG12bp1K9yMg4MDm7d7rQ58F83mzZvhaVRVVW/evElM/4aaD6auQHAns46YhbwY2TFyZGTK17wll7aW/TYT5SmJ2FjmmcjPNhvKujBiEVbAalRaTW2kVJfeQSh9+/aFaPANEBNv4LtoYmNj1dTUUHhX9d1R81HeaL8CAXEKUqhglLkhhlbz0ruUlBQtLS2Ep/986j/78F00RUVF5ubmioqK/fr1I6Z/Q00Gc1cgUI39S++Q+8PNIBHmW2wCfBcNoO7I17Rp0+fPnxPTJ1BzUJ490H4FAleX3iGZg2iWLFlC+nxCAKIJDAysW7cunM1n78hXQTQ0Nmrk8sbmpXdZWVnYSbCrxMTEEBOfEIBo0tLS8A1WdSIfmYBKU17zRo3MXOAjH+BzBAUFwc20bduWn3dxF4Bo3r9/36dPH4jG2tq68llIZAIqTXnNW4WRaQ985AN8junTp0M07DwvWQYEIBrg7u4O0TRs2PDBgwfE9A8VppbGxvjIVZCbm9uqVSs5ObnQ0FBi4hnCEE1ERAR1R77KV/0wPrWV7DVvZOQqiIyMRDbTvHnzzMxMYuIZwhBNXl6eqakpvspRo0YR0z8wPrWV7DVvZOQqoG5Fzud7DwpDNMDJyQmextjYOCcnh5g+wvjUVrLXvJGRP0dRUVGHDh0gGn9/f2LiH4IRza5duyAaFRUVeG9i+gjjU1vJXvNGRv4ccXFxSkpKWlpaT58+JSb+IRjRJCcn169fX0FBYdmyZcT0EcantpK95o2M/DmQ8sPN9O/fnw9XUlaFYERTXFxMnciHv3hNrLVLNKWlpXZ2dhCNt7c3MfESwYgGIEOE69bX1//00brUBDxh7AqECotoaWTkSjx69AjeFHXivXu8uxXtpwhJNOHh4chpkNl8eiIfo1cgnF1Xcb5padTg5AN8AvW8ZA5vRV5NhCQa5IbUZWPTpk0jpo8wdO9g6nWF+aalkZErQT0vefXq1aTPV4QkGjBs2DBlZWVzc/PPHpSh9y7l1NQyGPj+zbNnz/T09BQVFa9du0ZMfEVgovH09ISngW5Y+GaZvfQurOJxpYCAALiZdu3a8eQq/y8gMNHcvHlTXV0dhTfUQ0xMwlDg++yZexMnToRo5s+fT/o8RmCiwV6IfRE+vG/fvsTECvQGvsrk5uaamprKycmdPXuWmHiMwEQDpk6digiFwrs2PVqXel6ysbFxdnY2MfEY4Ynm+PHjqLrhbIKDg4lJ+Li4uCA2cfK8ZBkQnmjgYAwMDKAb3p6jJC3FxcUWFhYQDSfPS5YB4YmGuiAIounSpQv/C43qgOxeSUlJV1eXzwcpP0V4ogEbN25EeGrYsGFiYiIxCZn169fDzQwcOJD0eY8gRXPhwgXqRL4dO3YQk2B59+6djY0NRLNz505i4j2CFE1+fr6ZmZmCgsLIkSP5fApBdXjw4IGGhoa6unpSUhIx8R5BigY4OzvD0xgaGvLzIo/q4+PjAzfTq1cvHl5JWRVCFc3u3bvxXdepU8fNze2gkEE6jw8yefJk8sGEgFBFk5GR4eLi0qxZMx0dHW0ho6enh0+BOEs+mBAQqmgoCmsLwvrtQNiiEeEEUTQiUiOKRkRqRNGISI0oGhGpEUUjIjWiaESkRhSNiNSIohGRGlE0IlIjikZEakTRiEiNKBoRqRFFIyI1omhEpEYUjYjUiKIRkZIPH/4fJLmVAmM2IXwAAAAASUVORK5CYII=;fontSize=8;" parent="1" vertex="1">
          <mxGeometry x="196" y="203" width="39.51" height="33" as="geometry" />
        </mxCell>
        <mxCell id="tnFina3MZYSvZwjHpAd1-21" value="local bucket" style="shape=image;imageAspect=0;aspect=fixed;verticalLabelPosition=bottom;verticalAlign=top;fontColor=#66B2FF;image=data:image/png,iVBORw0KGgoAAAANSUhEUgAAALwAAACdCAIAAACB24VvAAAAAXNSR0IArs4c6QAAAARnQU1BAACxjwv8YQUAAAAJcEhZcwAAHYcAAB2HAY/l8WUAABnFSURBVHhe7Z0JXE3p/8dvRdqzVFKiRQ2GmUSYCJOiESNj95fsjH0djfws2YckyxRly5pBmRQh2mTNFimKQpGijUqK/yfnmV6mZLq3s+a8X8+r132+59ync+/zOd/lnk3yQURESkTRiEiNKBoRqRFFIyI1omhEpEYUjYjUiKIRkZqvVDQlJSX5+fkvX7588eJFampqbGxsaGjooUOHfHx8tm7d6unp6eHh4e7uvn79+nX/gNewbNiwYePGjZs3b/by8tqzZ09AQEBkZOS9e/fS09MzMzOzs7MLCgrI/6i91HLRvH//PiMj4+7du+Hh4du3b1+wYMG4ceMGDRpkZWVlZGTUoEEDNTU1DQ2N+vXrN2zYUFtbW1dXV09Pr2nTps2aNTM0NDQ2NjY1NTUzMzMxMcH6zZs3NzAw0NfXx2paWlqampqqqqrKysr16tVTUVFRV1fHCK1bt+7du7eTk9O0adNWr1597NgxKDIpKen169dkm4RPrRJNaWkpnMfFixfhA+bNm2dvb29ubo7phzIwwZj49u3b29rajhgxYv78+XAY/v7+cDDR0dGY1/j4+EePHj1//hwj5OTkwA/BZ7x9+xY+CcMWFxcXFhZi4vPy8uBO4FSePn364MGD27dvX758GYoMCgratWvXqlWrpk6d6ujo2KVLl1atWuno6NStW1deXh4b0KJFi65du44cORL/Nzg4ODk5uaioiGy30BC8aDDHV65cwUyMHTvWwsIC+3qjRo3gCTBDzs7OS5cu3bdvX0xMzJMnTzDZmHvyNuZ58+YNYh8i18mTJxHyZs+e3b9/f/ghCEgikcA/wW/16dPH1dUVMS4lJYXNbashghQNdvRz584tW7YMgQDxAvEFQQQTsGjRosOHD9+4cSM3N5esyjPevXsHFxUREeHt7T1p0qTOnTsjRFIaghecMGHC/v37oTOsRt7ASwQjGoSJhIQE5CUDBgxAzgGhIPSMGTNm586diBGIJmQ9oQENYQdYuXKlg4MD0ikICBlShw4d/ve//50/f56f6heAaJBtIKPs1KkT8hIkoUOGDPH19UVqKdycoCqQS6EWW7x4MTyQkpISBITdY/z48SEhIVhEVuIB/BUNwvyff/7Zo0cPlDbffPPN3LlzsUdmZWWRxbUauFUEKWTWSINQlEE9yKPnzJmDHB9ZOVmJO3gnGnwpyFsRd5DPYj9DmD99+jRqFrL46wN11rZt22xsbFCIQT3dunXz8/N79eoVWcwFPBINSlzUwN27d0e+gpIVXw0qI7Lsq+f9+/dxcXHz5s1DYQjpGBsbI4qlpqaSxezCC9GgWEDZiUCOSOTk5BQdHc3z8oFDnj17hsrLwsIC0tHR0XFzc0tLSyPL2IJ70YSHh1tbWyNyjxo16ubNm8Qq8kXglfft29euXTtIx8DAwN3dnc3DF1yKBjvN9OnTEYxQEF27do1YRapNfn6+j48PcmRIBzseSnSygGE4E82xY8dMTU1NTEyOHj2KgE2sItKTnp4+bdo0eXl5ZMouLi4s/GTFgWiKi4tXrFihoqIyderUFy9eEKtIzQgNDaWilb29fVJSErEyA9uiycnJGTx4MBLeXbt2EZMITSDcOzo6Qjdw4VFRUcTKAKyKBorBfoCQdOnSJWISoZXCwsKlS5dCN6jMIyIiiJVu2BNNXl5e//79jY2NExMTiUmEGdasWQPd6OnpXb58mZhohT3RoFDS0tK6ceMG6YswBgoLZMTQTcuWLRGziJU+WBJNcHCwoqJiQEAA6YswTFFRkYODA3Qzfvx4YqIPNkSDVKZNmzbOzs5iac0md+7cgWuvV6/eyZMniYkm2BCNt7d348aN2f+1W4RKbmxtbUtKSoiJDhgXDTa3Y8eOM2fOJH0RFnn69CnKKDib2NhYYqIDxkWTlJTUoEGDsLAw0hdhEeQDAwcOhLPx9PQkJjpgXDRBQUEQe3p6OumLsMvatWshmtGjR5M+HTAump07dxoYGNS+UzOFgp+fH0Rjb29P+nTAhmiUlZWTk5NJX4RdFixYANHY2dmRPh0wLppTp05ho/fu3Uv6IixSUFBAna41duxYYqIDxkWTkpICT0PvRotUk+vXr+PLh2i2bNlCTHTAuGhKS0t//PFHY2Nj3l7AVotZvXo1FKOqqhoXF0dMdMC4aACVi507d470RVjh3bt33bp1wzffr18/en+LZ0M0WVlZhoaGAwYMEA8jsEl0dLSSklKdOnVOnz5NTDTBhmjA7NmzIXkxHWaN/Px8a2trfOdwNrRf2sGSaIKDgyF5HR0d5s4MEinn7du3kyZNgmLA+vXriZU+WBJNenq6vr4+PoOBgQG9x0FEKvPbb79RilFRUUEBRaz0wZJokM3Y2dmVX9RO+8F6EYqcnJzp06fjS1ZQUMDfjh07wuuQZfTBkmgAyj98EnV1dVtbWw0NjQ0bNpAFIjTx6NEjGxsbaMXS0vKHH37AC1dXV7KMVtgTTUxMjPLH29P5+vru3r0b6hk6dOjDhw/JYpEaUFpaevDgQRMTEwhl5MiR9+/fNzMzwy4aGRlJ1qAV9kSDfL5Vq1aKiorQCrrh4eEdOnTQ1dXdtm2beDizJiQmJg4bNgxy0dTURNqLWiksLAzdli1bMnR3SPZEg7Rm3LhxkL+xsTF1O4i8vDw3N7cGDRrAqdL+W8LXQEZGxqpVq7S1tSGR/v37l18JP2fOHFgmT55MdWmHPdGAAwcOoPBGOgw3Q0wfPuCjOjo6qqqq9unTh7WrkYUO9joPDw8jIyOIo02bNnv27Cm/2VFhYeF3330H+99//01ZaIdV0SCDQTyCaNauXUtMH8EHhowcHByQIP/000/4tGzeA0FYJCcnr1y5Et4asmjRosWWLVsq3MXnypUryAFQoj5//pyY6IZV0ZSUlFhbW8PZoPyufKozpHP27Nlffvmlfv36rVu3Rnjm6qY9PAT+A1ntqFGj4JIhFwsLi82bN3/2pk+QFFYYPnw46TMAq6IBLi4uEA38zePHj4mpEvHx8QsWLDAwMGjUqBEiF+oCJq74EgTIaq9fv758+XJzc3NIAS4EO1VISEhVpUNxcXHXrl2x5r59+4iJAdgWzZkzZxCeUHj7+/sTUxVkZmYePnx44MCBSPT09PScnJzQffLkCVlcq4FfuXr16rp166ysrOTl5SECS0vL1atX3717l6xRBVhBTU0NrjolJYWYGIBt0WRlZcGFwNlU/8q/tLS0HTt2INeBeqhSCyXDtWvXsrOzyRq1AsTrp0+fBgQETJo0yczMDEJBpdm2bduFCxdeunSpmj/sImbhjfiuSJ8Z2BYNGDJkSN26dZG1vHnzhpiqR3p6emBgIL5TvFddXR1pIHJn5NRIohG/hHjeBTwKfAM86IwZMzp16oQ6AFOOoIxZx/TfunVLqgPUSApRgWKETZs2ERMzcCAab29veBp4UZlvOAK1oVD38vJCzGrVqpWmpmaTJk06duw4ceJEfNdhYWFwTpgPsjZvwKTm5uYiYzt69OjSpUuRrpmamiJNoYTSu3fvRYsWhYaGynwpKmI3xlFWVr5z5w4xMQMHosG+hRIAulmzZg0x1QCI4/79+wcOHECKbWtra2RkpKWlhV22TZs22O0mT57s4eFx4sSJuLg4OH/MGTsOCYkqcrKkpKSYmBjkpEuWLBkxYkSXLl309fXxwaESbCRy29GjR8MroCyi5b7A+/fvx8idO3dm+tkcHIimoKAArhjpMJJc2qcQToh68AmySBSokBFiGRJDODZ4IxMTE0wVjM7OzsgV4Jb27t2LNALp+cWLFyGshw8fYn9FsMOUYyLz8vKwtVDA69evc3JyUOJmZGQgSqampiYmJqKuiYqKwv9CfEHWhUA5a9aswYMHI3tt2bIlknfEUKSx8CU6OjpwhCh85syZg6mFkvAvyn+Oowv4XYgG7or0GYMD0YCZM2dih8Nu94XCmy4w3/Axt2/fPnbsmLu7u6ur65QpU/r27fv9998jJcd0Uk/7gbAQ5gBeAGTcMMIfYIXGjRtT68BIrQY1wFkiEAC8gGPDUl1dXYgS7mTkyJHz5s1Dnezr6xsREZGcnPzixQt6L8GvDP4FVWFcuHCBmBiDG9Fg/uBpwKlTp4iJdTCLcCFwJPAomFeUuEiGjh8/fuTIEX9//4MHDyLkIbIAeCOAF3ASMB46dAiuBR8BPgaeBv4JWUh+fj4CJWocrvLxoKAgOTk5BOXaeXdPgBDQtGnTevXqzZ07l5hEasa0adMQm1CFkT6TcCMa7OV2dnYovC0tLZk4texrA94FqRs8DTunRHIjGoC0EUkisgHkrcQkIivIrJHNIKf57NEo2uFMNKhWVFRU4Gy8vLyISURWFi9ejNiE6on0GYYz0aA2pk7kGzRoEDGJyERxcXGnTp0gGiTpxMQwnIkGVcaECRMUFBSMjIzYcaq1lTt37qDy19bWZuH3CwrORANQuyISo/AWb65WEzZt2gQ38/PPP7NW7XMpmtTU1CZNmqDwXrFiBTGJSAnq0N69e0M027ZtIybm4VI0+MDdu3eHs+nZsyfTP5jWVh4+fNiwYUNVVdWEhARiYh4uRQMWLlwI0TRu3Fg8s1M2du3aBTdjbW1N+5GsL8CxaJDNIKdBDYX8hphEqg2SmKFDh0I0y5cvJyZW4Fg0WVlZzZo1g7MR768mA5mZmXp6enXr1mXoaStVwbFoAPYVfOyWLVtKeyKfSGBgINyMubk5y1f8cC+a7du3w9OoqaldvHiRmESqx5QpUyCa2bNnkz5bcC+a+Ph4KAa68fDwICaRapCfn29mZiYnJ3fmzBliYgvuRVNUVNS5c2ekw46OjlydjCJEwsPD5eXlTUxMaDlVVCq4Fw349ddf4WmQEX+1F8XJgKurK2LTmDFjSJ9FeCGao0ePQjRIh0NCQohJ5IsUFhZaWlpCNEeOHCEmFuGFaKjjCRAN+zmdQLl16xYCuo6ODiePt+GFaJDK9O7dG6Jp3759VVcpi3zKH3/8ATczYMAA0mcXXogGuLu7KygoqKqqMn2hVy2gpKSkZ8+eEI2Pjw8xsQtfRHP58mUoBs5GPJHvP0lKStLQ0FBTU7t//z4xsQtfRFNQUPDtt98iTjs7OxOTSBX4+vrCzfTo0YP2W5FXE76IBqB6hKcxMzNj4codQTN48GCIZuXKlaTPOjwSDSK0oqKiiooKLdcIvnl5L+P+kdSr6xLOTrn996BrB60v7W4bs8M0yrtpxFat855qYRvqoOEFujBiEVbAalgZb8Eb8XYMQobjDWlpabofH4B75coVYmIdHonmwYMHjRo1QjpckxP5niccunX8F0jh7HoJLQ1DYUAMS/4B1/z1119wMygzObwtBo9Eg2LbysqqTp06NjY2skXruyGjyyc7eqvarX2G94+1fXLKKiPcNjumX/7VQW+uDy269X/FcaNK4se8TxiPhhfowohFWOFVTF+s/PikVeLRtng7BikfMPEcLx4tPm7cOIjGxcWF9LmAR6IBrq6uEI2Ojs6jR4+ISRqo2Y3YpPT41A8F14d9SJxYw4ZBMBQGxLBhGxTJv+GO7OxsExMTeXl5bu+dyy/RREREKCsrIx3eJ9N9BinRlLdwT8XLPlq39hslHGn9MKj9k1Nd0s50e3buR/iSzEj7l9EOaHiBLoxYhBWS/26fcORbvAVvxNsrDEj+DXecOXNGTk4OtUJeXh4xcQG/RPPy5UtDQ0M4G9kKb2pqH/tLbvpIojz/Nd+yNQyCoTAg1SX/hjvmz5+P2DRhwgTS5wh+iQYMHz4cBZS5ubkMiR6Z2nDSis9KcoMlz49JnhyWJO+XJOyRxO+W3Nkpub2jTArXt5c1vEAXRizCClgNK+MteCPeXj4UH0Tz9u1b6sawgYGBxMQRvBNNTU7kqyAaGhsfRBMbG4tKW09Pj5ODlJ/CO9Hgq9HQ0EBas3XrVmKqNrVbNGvWrIGbGTJkCOlzB+9EU1xcbGlpiXRYhutMa7Fo8LV0794dotmzZw8xcQfvRAMmTpyICGVgYCCtH67FoklISFBXV9fU1OTDY9X4KJqAgACIBhHqxIkTxFQ9mBZNzM5vorc1i/xT5/wmdXIUYpM6ujBi0WU/81j/H+NODEsMm/E41jMz+URRHm23cfDy8oKb6dWrFx9Oo+ajaB4/fkxdAzZr1ixiqh5Mi0aGFuWtFx867mVKjR6BBqE4OjpCNEw8L1kG+CgafEf29vZwNhYWFlIV3tQ8VZhvWho18pvYIYU3R7y97VRyd0xpwng0vEAXRizKvzrw1YW+z8/ZpIZ0Tvir9Q2/ppEff0qmWlK07M8gTUtL09LSQul0+/ZtYuIUPooGeHh4UCfyxcXFEVM1oKanwnzT0sjIlY4z/GfLOG8Xu1ufvF1WDh06BDfD0POSZYCnorl69aqampq0hTeZm0pTXvNGjVx9T3OvkqdBI1spPWPGjIFofv/9d9LnGp6KBlGpTZs2SkpKUt18kMxNpSmveSufeGlb1CZJ/B7ymmyllGRmZjZv3hzBOiIigpi4hqeiASi8FRUVTUxMcnNziem/oObmyWFJ4emKsy5zw1AYkBo5ZoskepMk0lNy3kMS5l7W8AJdGLHo8p+S2G2SuJ2SRL+yw1WZxyVF/2wG9XaylVISEhIiJyfXunVrbg9Sfgp/RbNjxw6kfioqKlFRUcT0XySem0lNDxom8pYvmb+MAMmrIEl+iOTNKUnRmbKDSiXnJO/PlzW8QBdGLMIK2SfKVoZK7u8tezsGKR8QQ5UrSdpGjUC2UkpmzJiB2DR16lTS5wH8FU1SUhJKBqTDbm5uxFQN6D9zb4Pk1o6yQ5gVdCBVo4YimygNr1+/RpiGp5H2JytG4a9oUCl07doVsVy20+5lOEe4bGrXlR30TvCTpMI/BZa5nwrTL1uTWTSXLl1CNaCvr5+VlUVMPIC/ogGLFy+GaLS1tdn57ZxMbaUpr3mTWTTLli1DbBo2bBjp8wNeiyYyMlJZWRm68fPzI6YvUsMrEKippcu7fNpkEw38q5WVFUSzd+9eYuIHvBbNq1evjIyMIJovn6vGzzzm00YNSza32sTHx6MOaNSokWxnTDMHr0UDRowYAWfTrl27qm4rx+wVCHsrTr9sjRqNbHG12bp1K9yMg4MDm7d7rQ58F83mzZvhaVRVVW/evElM/4aaD6auQHAns46YhbwY2TFyZGTK17wll7aW/TYT5SmJ2FjmmcjPNhvKujBiEVbAalRaTW2kVJfeQSh9+/aFaPANEBNv4LtoYmNj1dTUUHhX9d1R81HeaL8CAXEKUqhglLkhhlbz0ruUlBQtLS2Ep/986j/78F00RUVF5ubmioqK/fr1I6Z/Q00Gc1cgUI39S++Q+8PNIBHmW2wCfBcNoO7I17Rp0+fPnxPTJ1BzUJ490H4FAleX3iGZg2iWLFlC+nxCAKIJDAysW7cunM1n78hXQTQ0Nmrk8sbmpXdZWVnYSbCrxMTEEBOfEIBo0tLS8A1WdSIfmYBKU17zRo3MXOAjH+BzBAUFwc20bduWn3dxF4Bo3r9/36dPH4jG2tq68llIZAIqTXnNW4WRaQ985AN8junTp0M07DwvWQYEIBrg7u4O0TRs2PDBgwfE9A8VppbGxvjIVZCbm9uqVSs5ObnQ0FBi4hnCEE1ERAR1R77KV/0wPrWV7DVvZOQqiIyMRDbTvHnzzMxMYuIZwhBNXl6eqakpvspRo0YR0z8wPrWV7DVvZOQqoG5Fzud7DwpDNMDJyQmextjYOCcnh5g+wvjUVrLXvJGRP0dRUVGHDh0gGn9/f2LiH4IRza5duyAaFRUVeG9i+gjjU1vJXvNGRv4ccXFxSkpKWlpaT58+JSb+IRjRJCcn169fX0FBYdmyZcT0EcantpK95o2M/DmQ8sPN9O/fnw9XUlaFYERTXFxMnciHv3hNrLVLNKWlpXZ2dhCNt7c3MfESwYgGIEOE69bX1//00brUBDxh7AqECotoaWTkSjx69AjeFHXivXu8uxXtpwhJNOHh4chpkNl8eiIfo1cgnF1Xcb5padTg5AN8AvW8ZA5vRV5NhCQa5IbUZWPTpk0jpo8wdO9g6nWF+aalkZErQT0vefXq1aTPV4QkGjBs2DBlZWVzc/PPHpSh9y7l1NQyGPj+zbNnz/T09BQVFa9du0ZMfEVgovH09ISngW5Y+GaZvfQurOJxpYCAALiZdu3a8eQq/y8gMNHcvHlTXV0dhTfUQ0xMwlDg++yZexMnToRo5s+fT/o8RmCiwV6IfRE+vG/fvsTECvQGvsrk5uaamprKycmdPXuWmHiMwEQDpk6digiFwrs2PVqXel6ysbFxdnY2MfEY4Ynm+PHjqLrhbIKDg4lJ+Li4uCA2cfK8ZBkQnmjgYAwMDKAb3p6jJC3FxcUWFhYQDSfPS5YB4YmGuiAIounSpQv/C43qgOxeSUlJV1eXzwcpP0V4ogEbN25EeGrYsGFiYiIxCZn169fDzQwcOJD0eY8gRXPhwgXqRL4dO3YQk2B59+6djY0NRLNz505i4j2CFE1+fr6ZmZmCgsLIkSP5fApBdXjw4IGGhoa6unpSUhIx8R5BigY4OzvD0xgaGvLzIo/q4+PjAzfTq1cvHl5JWRVCFc3u3bvxXdepU8fNze2gkEE6jw8yefJk8sGEgFBFk5GR4eLi0qxZMx0dHW0ho6enh0+BOEs+mBAQqmgoCmsLwvrtQNiiEeEEUTQiUiOKRkRqRNGISI0oGhGpEUUjIjWiaESkRhSNiNSIohGRGlE0IlIjikZEakTRiEiNKBoRqRFFIyI1omhEpEYUjYjUiKIRkZIPH/4fJLmVAmM2IXwAAAAASUVORK5CYII=;fontSize=8;" parent="1" vertex="1">
          <mxGeometry x="496" y="203" width="39.51" height="33" as="geometry" />
        </mxCell>
        <mxCell id="tnFina3MZYSvZwjHpAd1-23" value="&lt;font style=&quot;font-size: 11px;&quot;&gt;class2&lt;/font&gt;" style="verticalAlign=top;verticalLabelPosition=bottom;labelPosition=center;align=center;html=1;outlineConnect=0;fillColor=#d5e8d4;strokeColor=#82b366;gradientDirection=north;strokeWidth=2;shape=mxgraph.networks.pc;" parent="1" vertex="1">
          <mxGeometry x="247" y="323.5" width="38" height="29" as="geometry" />
        </mxCell>
        <mxCell id="tnFina3MZYSvZwjHpAd1-24" value="&lt;font style=&quot;font-size: 11px;&quot;&gt;class3&lt;/font&gt;" style="verticalAlign=top;verticalLabelPosition=bottom;labelPosition=center;align=center;html=1;outlineConnect=0;fillColor=#d5e8d4;strokeColor=#82b366;gradientDirection=north;strokeWidth=2;shape=mxgraph.networks.pc;" parent="1" vertex="1">
          <mxGeometry x="346" y="323.5" width="38" height="29" as="geometry" />
        </mxCell>
        <mxCell id="tnFina3MZYSvZwjHpAd1-25" value="&lt;font style=&quot;font-size: 11px;&quot;&gt;class4&lt;/font&gt;" style="verticalAlign=top;verticalLabelPosition=bottom;labelPosition=center;align=center;html=1;outlineConnect=0;fillColor=#d5e8d4;strokeColor=#82b366;gradientDirection=north;strokeWidth=2;shape=mxgraph.networks.pc;" parent="1" vertex="1">
          <mxGeometry x="441" y="323.5" width="38" height="29" as="geometry" />
        </mxCell>
        <mxCell id="tnFina3MZYSvZwjHpAd1-26" value="&lt;font style=&quot;font-size: 11px;&quot;&gt;class5&lt;/font&gt;" style="verticalAlign=top;verticalLabelPosition=bottom;labelPosition=center;align=center;html=1;outlineConnect=0;gradientDirection=north;strokeWidth=2;shape=mxgraph.networks.pc;fillColor=#d5e8d4;strokeColor=#82b366;" parent="1" vertex="1">
          <mxGeometry x="521" y="323.5" width="38" height="29" as="geometry" />
        </mxCell>
      </root>
    </mxGraphModel>
  </diagram>
</mxfile>
